. 
 
http://www.torrenting.com          :     Once & For all ;)


               www . Torrenting . Com 

(((((((((((((= Enjoy No RAR releases =))))))))))))))))))))


...................................NFO:....................................

.                                                                
 @@@@@@@   @@@  @@@  @@@  @@@@@@@@  @@@@@@@   @@@@@@    @@@  @@@@@@@  @@@ @@@ 
 @@@@@@@@  @@@  @@@  @@@  @@@@@@@@  @@@@@@@@  @@@@@@@   @@@  @@@@@@@  @@@ @@@ 
 @@!  @@@  @@!  @@!  @@@  @@!       @@!  @@@  !@@       @@!    @@!    @@! !@@ 
 !@!  @!@  !@!  !@!  @!@  !@!       !@!  @!@  !@!       !@!    !@!    !@! @!! 
 @!@  !@!  !!@  @!@  !@!  @!!!:!    @!@!!@!   !!@@!!    !!@    @!!     !@!@!  
 !@!  !!!  !!!  !@!  !!!  !!!!!:    !!@!@!     !!@!!!   !!!    !!!      @!!!  
 !!:  !!!  !!:  :!:  !!:  !!:       !!: :!!        !:!  !!:    !!:      !!:   
 :!:  !:!  :!:   ::!!:!   :!:       :!:  !:!      !:!   :!:    :!:      :!:   
 :::: ::   ::    ::::     :: ::::   ::   :::  :::: ::    ::     ::       ::   
 :: :  :   :       :      : :: ::    :   : :  :: : :    :       :        :       


   
General

Complete name                    : Killer.Elite.2011.DVDRip.Xvid.AC3.DiVERSiTY
Format                           : AVI
Format/Info                      : Audio Video Interleave
File size                        : 1.25 GiB
Duration                         : 1h 56mn
Overall bit rate                 : 1 534 Kbps
Video-Source                     : DVDR-FiCODVDR   
Encoded by                       : Hibees
       
http://www.imdb.com/title/tt1448755/


Video

Format                           : MPEG-4 Visual
Format profile                   : Streaming Video@L1
Format settings, BVOP            : Yes
Format settings, QPel            : No
Format settings, GMC             : No warppoints
Format settings, Matrix          : Default
Codec ID                         : XVID
Codec ID/Hint                    : XviD
Duration                         : 1h 56mn
Bit rate                         : 1 301 Kbps
Width                            : 720 pixels
Height                           : 400 pixels
Display aspect ratio             : 16/9
Frame rate                       : 29.970 fps
Resolution                       : 24 bits
Colorimetry                      : 4:2:0
Scan type                        : Progressive
Bits/(Pixel*Frame)               : 0.151
Stream size                      : 1.06 GiB (85%)
Writing library                  : XviD 1.2.1 (UTC 2008-12-04)



Audio

Format                           : AC-3
Format/Info                      : Audio Coding 3
Codec ID                         : 2000
Duration                         : 1h 56mn
Bit rate mode                    : Constant
Bit rate                         : 224 Kbps
Channel(s)                       : 2 channels
Channel positions                : L R
Sampling rate                    : 48.0 KHz
Stream size                      : 186 MiB (15%)
Alignment                        : Aligned on interleaves
Interleave, duration             : 64 ms (1.92 video frames)
Interleave, preload duration     : 192 ms
Title                            : ke T80 2_0ch 224Kbps DELAY 0ms_new


   
Plot:

When his mentor is taken captive, a retired member of Britain's Elite 
Special Air Service is forced into action. His mission: kill three 
assassins dispatched by their cunning leader. 


Greets:

To Everyone who makes p2p possible...... Thanks.